<mxfile host="app.diagrams.net" modified="2024-03-05T05:10:51.444Z" agent="Mozilla/5.0 (Windows NT 10.0; Win64; x64) AppleWebKit/537.36 (KHTML, like Gecko) Chrome/122.0.0.0 Safari/537.36" version="23.1.6" etag="nI_o8Zn8A3K7FIN-3W7H" type="github">
  <diagram name="Page-1" id="Ah44wzWWiZ-OgtkRJnl1">
    <mxGraphModel>
      <root>
        <mxCell id="0" />
        <mxCell id="1" parent="0" />
      </root>
    </mxGraphModel>
  </diagram>
</mxfile>
